# xmcd CD database file
#
# Track frame offsets:
#	150
#	26330
#	67605
#	89110
#	120113
#	143405
#	174790
#	199403
#
# Disc length: 3098 seconds
#
# Revision: 0
# Processed by: cddbd v1.5.2PL0 Copyright (c) Steve Scherf et al.
# Submitted via: CDex 1.70beta2
#
DISCID=590c1808
DTITLE=Grolnick, Don - Weaver of Dreams
DYEAR=1990
DGENRE=Jazz
TTITLE0=Norhing personal
TTITLE1=Tagliono
TTITLE2=A weaver of dreams
TTITLE3=His majesty the baby
TTITLE4=I want to be happy
TTITLE5=Persimmons
TTITLE6=Or come fog
TTITLE7=Five bars
EXTD=YEAR: 1990
EXTT0=
EXTT1=
EXTT2=
EXTT3=
EXTT4=
EXTT5=
EXTT6=
EXTT7=
PLAYORDER=
